<svg version="1.1"
    xmlns="http://www.w3.org/2000/svg"
    xmlns:xlink="http://www.w3.org/1999/xlink" width="512" height="512" viewBox="0 0 512 512">
    <title>document view icon</title>
    <desc>document view icon from the IconExperience.com G-Collection. Copyright by INCORS GmbH (www.incors.com).</desc>
    <defs>
        <linearGradient x1="64" y1="0" x2="359.822" y2="512.00059" gradientUnits="userSpaceOnUse" id="color-1">
            <stop offset="0" stop-color="#f3fafe"/>
            <stop offset="1" stop-color="#cae9fb"/>
        </linearGradient>
        <linearGradient x1="128" y1="176" x2="326.1535" y2="511.9995" gradientUnits="userSpaceOnUse" id="color-2">
            <stop offset="0" stop-color="#dcf1fd"/>
            <stop offset="1" stop-color="#9cd7f8"/>
        </linearGradient>
        <linearGradient x1="480" y1="364.625" x2="428.7065" y2="418.332" gradientUnits="userSpaceOnUse" id="color-3">
            <stop offset="0" stop-color="#dca264"/>
            <stop offset="1" stop-color="#d08730"/>
        </linearGradient>
        <linearGradient x1="128" y1="160" x2="290.7935" y2="394.793" gradientUnits="userSpaceOnUse" id="color-4">
            <stop offset="0" stop-color="#91a0af"/>
            <stop offset="1" stop-color="#717f8f"/>
        </linearGradient>
        <linearGradient x1="160" y1="192" x2="164.061" y2="371.6935" gradientUnits="userSpaceOnUse" id="color-5">
            <stop offset="0" stop-color="#cdeafb"/>
            <stop offset="1" stop-color="#fdfefe"/>
        </linearGradient>
        <linearGradient x1="310.5" y1="9.5" x2="396.703" y2="127.03825" gradientUnits="userSpaceOnUse" id="color-6">
            <stop offset="0" stop-color="#c5e7fb"/>
            <stop offset="1" stop-color="#94d3f8"/>
        </linearGradient>
    </defs>
    <g fill="none" fill-rule="evenodd" stroke="none" stroke-width="1" stroke-linecap="butt" stroke-linejoin="miter" stroke-miterlimit="10" stroke-dasharray="" stroke-dashoffset="0" font-family="none" font-weight="none" font-size="none" text-anchor="none" style="mix-blend-mode: normal">
        <path d="M288,0l-216,0c-4.5,0 -8,3.5 -8,8l0,496c0,4.5 3.5,8 8,8l368,0c4.5,0 8,-3.5 8,-8l0,-344c0,-9 -3.5,-17 -9.5,-22.5l-128,-128c-5.5,-6 -13.5,-9.5 -22.5,-9.5z" id="curve6" fill="url(#color-1)"/>
        <path d="M422.5,512l17.5,0c4.5,0 8,-3.5 8,-8l0,-49.5l-72,-72c-2.5,-2.5 -6,-2.5 -8.5,0l-3,3l-16,-16c14.5,-20 23,-45 23,-71.5c0,-67.5 -54.5,-122 -121.5,-122c-67.5,0 -122,54.5 -122,122c0,67 54.5,121.5 122,121.5c26.5,0 51.5,-8.5 71.5,-23l16,16l-3,3c-2.5,2.5 -2.5,6 0,8.5z" id="curve5" fill="url(#color-2)"/>
        <path d="M385,390l-67.5,-67.5l-27,27l67.5,67.5z" id="curve4" fill="#717f8f"/>
        <path d="M478.5,469l-102.5,-102.5c-2.5,-2.5 -6,-2.5 -8.5,0l-33,33c-2.5,2.5 -2.5,6 0,8.5l102.5,102.5c2,2 6,2 8,0l16.5,-17l17,-16.5c2,-2 2,-6 0,-8z" id="curve3" fill="url(#color-3)"/>
        <path d="M250,160c67,0 121.5,54.5 121.5,122c0,67 -54.5,121.5 -121.5,121.5c-67.5,0 -122,-54.5 -122,-121.5c0,-67.5 54.5,-122 122,-122z" id="curve2" fill="url(#color-4)"/>
        <path d="M250,192c49.5,0 89.5,40 89.5,90c0,49.5 -40,89.5 -89.5,89.5c-50,0 -90,-40 -90,-89.5c0,-50 40,-90 90,-90z" id="curve1" fill="url(#color-5)"/>
        <path d="M438.5,137.5c-5.5,-6 -13.5,-9.5 -22.5,-9.5l-88,0c-4.5,0 -8,-3.5 -8,-8l0,-88c0,-8.5 -3.5,-16.5 -9.5,-22.5z" id="curve0" fill="url(#color-6)"/>
    </g>
</svg>